Coordinates
version=1
nRows=9
nColumns=24
inDegrees=yes

Units are S.I. units (second, meters, Newtons, ...)
Angles are in degrees.

endheader
time	pelvis_tilt	pelvis_list	pelvis_rotation	pelvis_tx	pelvis_ty	pelvis_tz	hip_flexion_r	hip_adduction_r	hip_rotation_r	knee_angle_r	ankle_angle_r	subtalar_angle_r	mtp_angle_r	hip_flexion_l	hip_adduction_l	hip_rotation_l	knee_angle_l	ankle_angle_l	subtalar_angle_l	mtp_angle_l	lumbar_extension	lumbar_bending	lumbar_rotation
      6.21000000	     -4.26576872	      6.21638825	     30.73917734	     -1.58861432	      0.62882763	      0.11847652	     29.28542595	    -17.46552657	    -17.22735448	     -7.74812487	    -10.38016606	    -22.55089806	      0.00000000	    -20.76360412	     -1.72689146	     20.95453528	    -16.65940760	     19.16873391	     11.91696060	      0.00000000	    -12.02028686	     -6.85460996	    -12.45378437
      6.22000000	     -4.33523680	      5.42880042	     30.20769492	     -1.57540392	      0.62716882	      0.11958321	     30.79369872	    -16.65161850	    -16.47833119	    -11.19010357	    -12.59400015	    -25.06020725	      0.00000000	    -20.42728943	     -2.64599438	     19.76361813	    -18.06635439	     17.40106144	     12.63757346	      0.00000000	    -11.55279542	     -5.99782657	    -11.63456448
      6.23000000	     -4.15326903	      4.49359057	     29.33330054	     -1.56251576	      0.62606269	      0.12105591	     32.36217852	    -15.40154406	    -15.66700685	    -15.01245328	    -13.17093484	    -26.48719177	      0.00000000	    -20.00980519	     -3.62152186	     18.14936264	    -19.86666840	     15.22313133	     13.23326351	      0.00000000	    -11.31887430	     -4.83949108	    -10.68930942
      6.24000000	     -3.80660752	      3.55057775	     28.21962271	     -1.54991467	      0.62549972	      0.12285248	     33.78087382	    -13.83561095	    -14.70088713	    -18.83612620	    -12.55484791	    -27.28305302	      0.00000000	    -19.48934442	     -4.50655584	     16.38170624	    -22.06266230	     12.38882655	     13.26088148	      0.00000000	    -11.36415636	     -3.60686582	     -9.72279755
      6.25000000	     -3.47658805	      2.60167159	     27.08755929	     -1.53757494	      0.62535132	      0.12493810	     34.92999773	    -12.03674005	    -13.54684416	    -22.19077098	    -11.41848381	    -28.10022172	      0.00000000	    -18.52854104	     -5.35651943	     14.38811747	    -24.83739668	      8.91517051	     13.35278508	      0.00000000	    -11.52998766	     -2.41093030	     -9.11126762
      6.26000000	     -3.18303559	      1.66451911	     26.08476627	     -1.52549686	      0.62563175	      0.12723242	     35.64443205	    -10.08512982	    -12.36484993	    -24.79257162	    -10.06777843	    -29.02468994	      0.00000000	    -17.10187267	     -6.21549475	     12.50489640	    -28.13725323	      4.81792564	     13.18602998	      0.00000000	    -11.83295890	     -1.30018569	     -8.96497077
      6.27000000	     -2.96473840	      0.78745076	     25.30497146	     -1.51375142	      0.62635293	      0.12960005	     35.89063778	     -8.13061000	    -11.25407639	    -26.53293977	     -8.81558324	    -30.12075641	      0.00000000	    -15.19591325	     -7.03073996	     11.03750634	    -31.87770567	      0.04746427	     12.47812021	      0.00000000	    -12.24611978	     -0.33226250	     -9.22210254
      6.28000000	     -2.92870860	      0.08606890	     24.77981974	     -1.50243702	      0.62744598	      0.13190497	     35.80452018	     -6.39688569	    -10.14719663	    -27.50519832	     -8.03773491	    -31.73263183	      0.00000000	    -12.80755365	     -7.56976818	     10.28186023	    -35.91459934	     -5.29776210	     10.77021438	      0.00000000	    -12.66640937	      0.32582896	     -9.82525160
      6.29000000	     -2.97061080	     -0.51992522	     24.45092367	     -1.49159152	      0.62892202	      0.13411191	     35.41877268	     -4.84572998	     -9.21631130	    -27.87006832	     -7.55465494	    -33.28264248	      0.00000000	    -10.02352174	     -7.95040416	      9.97131251	    -40.21021436	    -10.67158859	      8.73951503	      0.00000000	    -13.11952285	      0.81745978	    -10.57451387
